<?xml version="1.0" encoding="UTF-8" standalone="no"?>
<svg
   xmlns:dc="http://purl.org/dc/elements/1.1/"
   xmlns:cc="http://creativecommons.org/ns#"
   xmlns:rdf="http://www.w3.org/1999/02/22-rdf-syntax-ns#"
   xmlns:svg="http://www.w3.org/2000/svg"
   xmlns="http://www.w3.org/2000/svg"
   xmlns:sodipodi="http://sodipodi.sourceforge.net/DTD/sodipodi-0.dtd"
   xmlns:inkscape="http://www.inkscape.org/namespaces/inkscape"
   width="210mm"
   height="297mm"
   viewBox="0 0 210 297"
   version="1.1"
   id="svg8"
   inkscape:version="1.0.2 (e86c870879, 2021-01-15)"
   sodipodi:docname="icons.svg">
  <defs
     id="defs2" />
  <sodipodi:namedview
     id="base"
     pagecolor="#ffffff"
     bordercolor="#666666"
     borderopacity="1.0"
     inkscape:pageopacity="0.0"
     inkscape:pageshadow="2"
     inkscape:zoom="5.3121307"
     inkscape:cx="243.99376"
     inkscape:cy="124.94937"
     inkscape:document-units="mm"
     inkscape:current-layer="layer1"
     inkscape:document-rotation="0"
     showgrid="true"
     inkscape:window-width="2646"
     inkscape:window-height="1442"
     inkscape:window-x="832"
     inkscape:window-y="584"
     inkscape:window-maximized="0"
     objecttolerance="10000"
     gridtolerance="10000">
    <inkscape:grid
       type="xygrid"
       id="grid1226"
       snapvisiblegridlinesonly="true"
       spacingx="11.1125"
       spacingy="11.1125"
       empspacing="1"
       empcolor="#3f3fff"
       empopacity="0.91372549"
       originx="4.1010417"
       originy="3.3072917"
       enabled="true" />
    <sodipodi:guide
       position="0,297"
       orientation="0,793.70079"
       id="guide1249" />
    <sodipodi:guide
       position="210,297"
       orientation="1122.5197,0"
       id="guide1251" />
    <sodipodi:guide
       position="210,0"
       orientation="0,-793.70079"
       id="guide1253" />
    <sodipodi:guide
       position="0,0"
       orientation="-1122.5197,0"
       id="guide1255" />
  </sodipodi:namedview>
  <metadata
     id="metadata5">
    <rdf:RDF>
      <cc:Work
         rdf:about="">
        <dc:format>image/svg+xml</dc:format>
        <dc:type
           rdf:resource="http://purl.org/dc/dcmitype/StillImage" />
        <dc:title></dc:title>
      </cc:Work>
    </rdf:RDF>
  </metadata>
  <g
     inkscape:label="Layer 1"
     inkscape:groupmode="layer"
     id="layer1">
    <g
       id="g1247"
       transform="translate(4.4826646,2.589984)">
      <path
         d="m 27.634763,16.415912 h -0.440019 v 2.855983 h 0.440019 v -2.855983"
         style="fill:#004a90;fill-opacity:1;fill-rule:nonzero;stroke:none;stroke-width:0.0352778"
         id="path22" />
      <path
         d="m 26.754865,16.415912 h -0.439984 v 2.855983 h 0.439984 v -2.855983"
         style="fill:#004a90;fill-opacity:1;fill-rule:nonzero;stroke:none;stroke-width:0.0352778"
         id="path24" />
      <path
         d="m 25.875002,16.415912 h -0.44002 v 2.855983 h 0.44002 v -2.855983"
         style="fill:#004a90;fill-opacity:1;fill-rule:nonzero;stroke:none;stroke-width:0.0352778"
         id="path26" />
      <path
         d="m 24.995139,16.415912 h -0.44002 v 2.855983 h 0.44002 v -2.855983"
         style="fill:#004a90;fill-opacity:1;fill-rule:nonzero;stroke:none;stroke-width:0.0352778"
         id="path28" />
      <path
         d="m 28.514627,16.415912 h -0.439985 v 2.855983 h 0.439985 v -2.855983"
         style="fill:#004a90;fill-opacity:1;fill-rule:nonzero;stroke:none;stroke-width:0.0352778"
         id="path30" />
      <path
         d="m 29.394525,16.415912 h -0.44002 v 2.855983 h 0.44002 v -2.855983"
         style="fill:#004a90;fill-opacity:1;fill-rule:nonzero;stroke:none;stroke-width:0.0352778"
         id="path32" />
      <path
         d="m 30.274388,16.415912 h -0.44002 v 2.855983 h 0.44002 v -2.855983"
         style="fill:#004a90;fill-opacity:1;fill-rule:nonzero;stroke:none;stroke-width:0.0352778"
         id="path34" />
      <path
         d="m 30.724885,20.152041 h -6.620263 v -0.440267 h 6.620263 v 0.440267"
         style="fill:#004a90;fill-opacity:1;fill-rule:nonzero;stroke:none;stroke-width:0.0352778"
         id="path36" />
      <path
         d="M 30.274388,15.975892 H 24.555119 L 24.11524,15.536049 h 6.599027 l -0.439879,0.439843"
         style="fill:#004a90;fill-opacity:1;fill-rule:nonzero;stroke:none;stroke-width:0.0352778"
         id="path38" />
      <path
         d="m 31.164729,21.031939 h -7.499951 v -0.440302 h 7.499951 v 0.440302"
         style="fill:#004a90;fill-opacity:1;fill-rule:nonzero;stroke:none;stroke-width:0.0352778"
         id="path40" />
      <path
         d="m 31.164729,14.824425 -3.750028,-1.328173 -3.749923,1.328173 v 0.467149 l 3.749923,-1.327891 3.750028,1.327891 v -0.467149"
         style="fill:#004a90;fill-opacity:1;fill-rule:nonzero;stroke:none;stroke-width:0.0352778"
         id="path42" />
    </g>
    <g
       id="g1230"
       transform="translate(2.7269259,2.719482)">
      <path
         d="m 44.639709,15.147696 c -0.105833,-0.396875 -0.423333,-0.687917 -0.79375,-0.79375 -0.714375,-0.211667 -3.571875,-0.211667 -3.571875,-0.211667 0,0 -2.831042,0 -3.518958,0.185208 -0.396875,0.105834 -0.687917,0.396875 -0.79375,0.79375 -0.211667,0.714375 -0.211667,2.196042 -0.211667,2.196042 0,0 0,1.481667 0.185208,2.169583 0.105834,0.396875 0.423334,0.687917 0.79375,0.79375 0.714375,0.211667 3.545417,0.211667 3.545417,0.211667 0,0 2.831042,0 3.545417,-0.185208 0.396875,-0.105834 0.687916,-0.423334 0.79375,-0.79375 0.185208,-0.714375 0.185208,-2.169584 0.185208,-2.169584 0,0 0.02646,-1.508125 -0.15875,-2.196041 z"
         fill="#1f62c2"
         id="path4"
         style="fill:#eff8fd;fill-opacity:1;stroke:#004a90;stroke-width:0.265;stroke-miterlimit:4;stroke-dasharray:none;stroke-opacity:1" />
      <path
         d="m 39.374501,18.666654 2.354791,-1.349375 -2.354791,-1.349375 z"
         fill="#ffffff"
         id="path6"
         style="fill:#ffffff;fill-opacity:1;stroke:#004a90;stroke-width:0.264583;stroke-opacity:1" />
    </g>
    <path
       d="m 16.955291,16.584401 h -0.440019 v 2.855983 h 0.440019 v -2.855983"
       style="fill:#127bca;fill-opacity:1;fill-rule:nonzero;stroke:none;stroke-width:0.0352778"
       id="path22-9" />
    <path
       d="m 16.075393,16.584401 h -0.439984 v 2.855983 h 0.439984 v -2.855983"
       style="fill:#127bca;fill-opacity:1;fill-rule:nonzero;stroke:none;stroke-width:0.0352778"
       id="path24-5" />
    <path
       d="m 15.19553,16.584401 h -0.44002 v 2.855983 h 0.44002 v -2.855983"
       style="fill:#127bca;fill-opacity:1;fill-rule:nonzero;stroke:none;stroke-width:0.0352778"
       id="path26-4" />
    <path
       d="m 14.315667,16.584401 h -0.44002 v 2.855983 h 0.44002 v -2.855983"
       style="fill:#127bca;fill-opacity:1;fill-rule:nonzero;stroke:none;stroke-width:0.0352778"
       id="path28-2" />
    <path
       d="M 17.835155,16.584401 H 17.39517 v 2.855983 h 0.439985 v -2.855983"
       style="fill:#127bca;fill-opacity:1;fill-rule:nonzero;stroke:none;stroke-width:0.0352778"
       id="path30-5" />
    <path
       d="m 18.715053,16.584401 h -0.44002 v 2.855983 h 0.44002 v -2.855983"
       style="fill:#127bca;fill-opacity:1;fill-rule:nonzero;stroke:none;stroke-width:0.0352778"
       id="path32-3" />
    <path
       d="m 19.594916,16.584401 h -0.44002 v 2.855983 h 0.44002 v -2.855983"
       style="fill:#127bca;fill-opacity:1;fill-rule:nonzero;stroke:none;stroke-width:0.0352778"
       id="path34-9" />
    <path
       d="M 20.045413,20.32053 H 13.42515 v -0.440267 h 6.620263 v 0.440267"
       style="fill:#127bca;fill-opacity:1;fill-rule:nonzero;stroke:none;stroke-width:0.0352778"
       id="path36-7" />
    <path
       d="m 19.594916,16.14438 h -5.719269 l -0.439879,-0.439842 h 6.599027 l -0.439879,0.439842"
       style="fill:#127bca;fill-opacity:1;fill-rule:nonzero;stroke:none;stroke-width:0.0352778"
       id="path38-2" />
    <path
       d="m 20.485257,21.200428 h -7.499951 v -0.440302 h 7.499951 v 0.440302"
       style="fill:#127bca;fill-opacity:1;fill-rule:nonzero;stroke:none;stroke-width:0.0352778"
       id="path40-4" />
    <path
       d="m 20.485257,14.992913 -3.750028,-1.328173 -3.749923,1.328173 v 0.467149 l 3.749923,-1.32789 3.750028,1.32789 v -0.467149"
       style="fill:#127bca;fill-opacity:1;fill-rule:nonzero;stroke:none;stroke-width:0.0352778"
       id="path42-7" />
    <g
       id="g1234"
       transform="translate(2.8102717,6.8803927)">
      <path
         d="m 43.862228,24.975441 c -0.105833,-0.396875 -0.423333,-0.687917 -0.79375,-0.79375 -0.714375,-0.211667 -3.571875,-0.211667 -3.571875,-0.211667 0,0 -2.831042,0 -3.518958,0.185208 -0.396875,0.105834 -0.687917,0.396875 -0.79375,0.79375 -0.211667,0.714375 -0.211667,2.196042 -0.211667,2.196042 0,0 0,1.481667 0.185208,2.169583 0.105834,0.396875 0.423334,0.687917 0.79375,0.79375 0.714375,0.211667 3.545417,0.211667 3.545417,0.211667 0,0 2.831042,0 3.545417,-0.185208 0.396875,-0.105834 0.687916,-0.423334 0.79375,-0.79375 0.185208,-0.714375 0.185208,-2.169584 0.185208,-2.169584 0,0 0.02646,-1.508125 -0.15875,-2.196041 z"
         fill="#1f62c2"
         id="path4-7"
         style="stroke-width:0.264583" />
      <path
         d="M 38.59702,28.494399 40.951811,27.145024 38.59702,25.795649 Z"
         fill="#ffffff"
         id="path6-7"
         style="stroke-width:0.264583" />
    </g>
    <path
       d="m 21.050446,24.178522 c -0.105833,-0.396875 -0.423333,-0.687916 -0.79375,-0.793749 -0.714375,-0.211667 -3.571875,-0.211667 -3.571875,-0.211667 0,0 -2.831042,0 -3.518958,0.185208 -0.396875,0.105834 -0.687917,0.396875 -0.79375,0.79375 -0.211667,0.714375 -0.211667,2.196041 -0.211667,2.196041 0,0 0,1.481668 0.185208,2.169583 0.105834,0.396876 0.423334,0.687917 0.79375,0.79375 0.714375,0.211667 3.545417,0.211667 3.545417,0.211667 0,0 2.831042,0 3.545417,-0.185207 0.396875,-0.105835 0.687916,-0.423335 0.79375,-0.793751 0.185208,-0.714375 0.185208,-2.169584 0.185208,-2.169584 0,0 0.02646,-1.508125 -0.15875,-2.196041 z"
       fill="#1f62c2"
       id="path4-7-6"
       style="fill:#004a90;fill-opacity:1;stroke-width:0.264583" />
    <path
       d="m 15.785238,27.69748 2.354791,-1.349375 -2.354791,-1.349374 z"
       fill="#ffffff"
       id="path6-7-0"
       style="stroke-width:0.264583" />
    <text
       xml:space="preserve"
       style="font-style:normal;font-variant:normal;font-weight:normal;font-stretch:normal;font-size:9.24112px;line-height:1.25;font-family:sans-serif;-inkscape-font-specification:'sans-serif, Normal';font-variant-ligatures:normal;font-variant-caps:normal;font-variant-numeric:normal;font-variant-east-asian:normal;fill:#004a90;fill-opacity:1;stroke:none;stroke-width:0.231028"
       x="51.547359"
       y="23.210239"
       id="text1140"><tspan
         sodipodi:role="line"
         id="tspan1138"
         x="51.547359"
         y="23.210239"
         style="font-style:normal;font-variant:normal;font-weight:normal;font-stretch:normal;font-size:9.24112px;font-family:sans-serif;-inkscape-font-specification:'sans-serif, Normal';font-variant-ligatures:normal;font-variant-caps:normal;font-variant-numeric:normal;font-variant-east-asian:normal;fill:#004a90;fill-opacity:1;stroke-width:0.231028">?</tspan></text>
    <text
       xml:space="preserve"
       style="font-style:normal;font-variant:normal;font-weight:normal;font-stretch:normal;font-size:13.374px;line-height:1.25;font-family:sans-serif;-inkscape-font-specification:'sans-serif, Normal';font-variant-ligatures:normal;font-variant-caps:normal;font-variant-numeric:normal;font-variant-east-asian:normal;fill:#004a90;fill-opacity:1;stroke:none;stroke-width:0.334351"
       x="59.748989"
       y="24.81864"
       id="text1144"><tspan
         sodipodi:role="line"
         id="tspan1142"
         x="59.748989"
         y="24.81864"
         style="font-style:normal;font-variant:normal;font-weight:normal;font-stretch:normal;font-size:13.374px;font-family:sans-serif;-inkscape-font-specification:'sans-serif, Normal';font-variant-ligatures:normal;font-variant-caps:normal;font-variant-numeric:normal;font-variant-east-asian:normal;fill:#004a90;fill-opacity:1;stroke-width:0.334351">✓</tspan></text>
    <circle
       style="fill:#eff8fd;fill-opacity:1;stroke:#004a90;stroke-width:0.248295;stroke-miterlimit:4;stroke-dasharray:none;stroke-opacity:1"
       id="path1146"
       cx="76.329834"
       cy="20.047472"
       r="1.7267067" />
    <circle
       style="fill:#eff8fd;fill-opacity:1;stroke:#004a90;stroke-width:0.248295;stroke-miterlimit:4;stroke-dasharray:none;stroke-opacity:1"
       id="path1146-0"
       cx="85.419693"
       cy="20.072376"
       r="1.7267067" />
    <circle
       style="fill:#eff8fd;fill-opacity:1;stroke:#004a90;stroke-width:0.248295;stroke-miterlimit:4;stroke-dasharray:none;stroke-opacity:1"
       id="path1146-7"
       cx="85.419693"
       cy="20.072376"
       r="1.7267067" />
    <circle
       style="fill:#eff8fd;fill-opacity:1;stroke:#004a90;stroke-width:0.248295;stroke-miterlimit:4;stroke-dasharray:none;stroke-opacity:1"
       id="path1146-05"
       cx="85.419693"
       cy="20.072376"
       r="1.7267067" />
    <circle
       style="fill:#eff8fd;fill-opacity:1;stroke:#004a90;stroke-width:0.248295;stroke-miterlimit:4;stroke-dasharray:none;stroke-opacity:1"
       id="path1146-8"
       cx="98.612427"
       cy="18.192078"
       r="1.7267067" />
    <g
       id="g1224"
       transform="translate(7.6392444,3.5674171)">
      <circle
         style="fill:#eff8fd;fill-opacity:1;stroke:#004a90;stroke-width:0.248295;stroke-miterlimit:4;stroke-dasharray:none;stroke-opacity:1"
         id="path1146-5"
         cx="92.940575"
         cy="18.055178"
         r="1.7267067" />
      <circle
         style="fill:#eff8fd;fill-opacity:1;stroke:#004a90;stroke-width:0.248295;stroke-miterlimit:4;stroke-dasharray:none;stroke-opacity:1"
         id="path1146-9"
         cx="89.005798"
         cy="18.055178"
         r="1.7267067" />
    </g>
    <circle
       style="fill:#eff8fd;fill-opacity:1;stroke:#004a90;stroke-width:0.248295;stroke-miterlimit:4;stroke-dasharray:none;stroke-opacity:1"
       id="path1146-4"
       cx="89.404282"
       cy="20.072376"
       r="1.7267067" />
  </g>
</svg>
