<?xml version="1.0" encoding="UTF-8" standalone="no"?>
<svg
   xmlns:dc="http://purl.org/dc/elements/1.1/"
   xmlns:cc="http://creativecommons.org/ns#"
   xmlns:rdf="http://www.w3.org/1999/02/22-rdf-syntax-ns#"
   xmlns:svg="http://www.w3.org/2000/svg"
   xmlns="http://www.w3.org/2000/svg"
   xmlns:sodipodi="http://sodipodi.sourceforge.net/DTD/sodipodi-0.dtd"
   xmlns:inkscape="http://www.inkscape.org/namespaces/inkscape"
   sodipodi:docname="cobweb_ex.svg"
   id="svg8"
   version="1.1"
   viewBox="0 0 210 297"
   height="297mm"
   width="210mm"
   inkscape:version="1.0.2 (e86c870879, 2021-01-15)"
   inkscape:export-filename="C:\Users\peter\Documents\files\documents\teaching\mathematics for photonics\course notes\dynamic\figures\cobweb_ex.png"
   inkscape:export-xdpi="96"
   inkscape:export-ydpi="96">
  <defs
     id="defs2">
    <marker
       style="overflow:visible"
       id="marker1511"
       refX="0"
       refY="0"
       orient="auto"
       inkscape:stockid="Arrow2Lend"
       inkscape:isstock="true"
       inkscape:collect="always">
      <path
         transform="matrix(-1.1,0,0,-1.1,-1.1,0)"
         d="M 8.7185878,4.0337352 -2.2072895,0.01601326 8.7185884,-4.0017078 c -1.7454984,2.3720609 -1.7354408,5.6174519 -6e-7,8.035443 z"
         style="fill:#000000;fill-opacity:1;fill-rule:evenodd;stroke:#000000;stroke-width:0.625;stroke-linejoin:round;stroke-opacity:1"
         id="path1509" />
    </marker>
    <marker
       style="overflow:visible"
       id="marker1569"
       refX="0"
       refY="0"
       orient="auto"
       inkscape:stockid="Arrow2Lend"
       inkscape:isstock="true">
      <path
         transform="matrix(-1.1,0,0,-1.1,-1.1,0)"
         d="M 8.7185878,4.0337352 -2.2072895,0.01601326 8.7185884,-4.0017078 c -1.7454984,2.3720609 -1.7354408,5.6174519 -6e-7,8.035443 z"
         style="fill:#000000;fill-opacity:1;fill-rule:evenodd;stroke:#000000;stroke-width:0.625;stroke-linejoin:round;stroke-opacity:1"
         id="path1567" />
    </marker>
    <marker
       style="overflow:visible"
       id="marker1569-4"
       refX="0"
       refY="0"
       orient="auto"
       inkscape:stockid="Arrow2Lend"
       inkscape:isstock="true">
      <path
         transform="matrix(-1.1,0,0,-1.1,-1.1,0)"
         d="M 8.7185878,4.0337352 -2.2072895,0.01601326 8.7185884,-4.0017078 c -1.7454984,2.3720609 -1.7354408,5.6174519 -6e-7,8.035443 z"
         style="fill:#000000;fill-opacity:1;fill-rule:evenodd;stroke:#000000;stroke-width:0.625;stroke-linejoin:round;stroke-opacity:1"
         id="path1567-2" />
    </marker>
    <marker
       style="overflow:visible"
       id="marker1569-6"
       refX="0"
       refY="0"
       orient="auto"
       inkscape:stockid="Arrow2Lend"
       inkscape:isstock="true">
      <path
         transform="matrix(-1.1,0,0,-1.1,-1.1,0)"
         d="M 8.7185878,4.0337352 -2.2072895,0.01601326 8.7185884,-4.0017078 c -1.7454984,2.3720609 -1.7354408,5.6174519 -6e-7,8.035443 z"
         style="fill:#000000;fill-opacity:1;fill-rule:evenodd;stroke:#000000;stroke-width:0.625;stroke-linejoin:round;stroke-opacity:1"
         id="path1567-1" />
    </marker>
  </defs>
  <sodipodi:namedview
     id="base"
     pagecolor="#ffffff"
     bordercolor="#666666"
     borderopacity="1.0"
     inkscape:pageopacity="0.0"
     inkscape:pageshadow="2"
     inkscape:zoom="1.002826"
     inkscape:cx="400"
     inkscape:cy="565.11119"
     inkscape:document-units="mm"
     inkscape:current-layer="layer1"
     inkscape:document-rotation="0"
     showgrid="false"
     inkscape:window-width="1757"
     inkscape:window-height="1515"
     inkscape:window-x="886"
     inkscape:window-y="296"
     inkscape:window-maximized="0" />
  <metadata
     id="metadata5">
    <rdf:RDF>
      <cc:Work
         rdf:about="">
        <dc:format>image/svg+xml</dc:format>
        <dc:type
           rdf:resource="http://purl.org/dc/dcmitype/StillImage" />
        <dc:title />
      </cc:Work>
    </rdf:RDF>
  </metadata>
  <g
     inkscape:label="Layer 1"
     inkscape:groupmode="layer"
     id="layer1">
    <path
       style="fill:#ffffff;stroke:#000000;stroke-width:0.264999"
       d=""
       title="-.8*sin(x)+1+sin(2x)"
       id="path1084" />
    <path
       style="fill:#000000;stroke:#000000;stroke-width:0.5;stroke-linecap:butt;stroke-linejoin:miter;stroke-miterlimit:4;stroke-dasharray:none;stroke-opacity:1;marker-end:url(#marker1511)"
       d="M 100.70695,259.46369 V 162.53802"
       id="path1501" />
    <path
       style="fill:#ffffff;stroke:#af2e46;stroke-width:0.7;stroke-miterlimit:4;stroke-dasharray:none;stroke-dashoffset:0"
       d="m 29.286,172.54956 c 1.6285,8.324 3.257,15.883 4.8855,22.73 1.6285,6.847 3.2571,12.979 4.8856,18.454 1.6285,5.474 3.257,10.287 4.8855,14.494 1.6285,4.208 3.2571,7.806 4.8856,10.852 1.6285,3.046 3.257,5.536 4.8855,7.526 1.6285,1.99 3.257,3.477 4.8856,4.517 1.6285,1.04 3.257,1.63 4.8855,1.825 1.6285,0.195 3.257,-0.007 4.8856,-0.551 1.6285,-0.544 3.257,-1.433 4.8855,-2.61 1.6285,-1.178 3.257,-2.647 4.8855,-4.352 1.6286,-1.706 3.2571,-3.649 4.8856,-5.777 1.6285,-2.128 3.257,-4.442 4.8855,-6.886 1.6286,-2.445 3.2571,-5.022 4.8856,-7.678 1.6285,-2.656 3.257,-5.392 4.8855,-8.153 1.6286,-2.762 3.2574,-5.55 4.8854,-8.312 1.629,-2.761 3.257,-5.496 4.886,-8.153 1.628,-2.656 3.257,-5.232 4.885,-7.677 1.629,-2.445 3.257,-4.758 4.886,-6.886 1.628,-2.129 3.257,-4.072 4.885,-5.778 1.629,-1.706 3.257,-3.173 4.886,-4.352 1.628,-1.178 3.257,-2.065 4.885,-2.61 1.629,-0.544 3.257,-0.745 4.886,-0.551 1.629,0.195 3.257,0.786 4.886,1.825 1.628,1.039 3.257,2.528 4.885,4.517 1.629,1.989 3.257,4.481 4.886,7.526 1.628,3.045 3.257,6.646 4.885,10.852 1.629,4.206 3.257,9.021 4.886,14.495 1.628,5.473 3.257,11.608 4.885,18.453 1.629,6.846 3.257,14.407 4.886,22.73"
       title="0.5*(3*x-x**3)"
       id="path3853" />
    <path
       style="fill:#ffffff;stroke:#004a90;stroke-width:0.7;stroke-miterlimit:4;stroke-dasharray:none;stroke-dashoffset:0"
       d="m 56.581068,262.24975 c 1.001034,-1.13719 2.002067,-2.27376 3.003163,-3.41095 1.001033,-1.13719 2.002067,-2.27438 3.0031,-3.41157 1.001034,-1.13719 2.002068,-2.27438 3.003163,-3.41156 1.001033,-1.13719 2.002067,-2.27438 3.0031,-3.41096 1.001034,-1.13719 2.002068,-2.27437 3.003101,-3.41156 1.001095,-1.13719 2.002129,-2.27438 3.003163,-3.41157 1.001033,-1.13719 2.002067,-2.27438 3.0031,-3.41157 1.001096,-1.13657 2.002129,-2.27376 3.003163,-3.41095 1.001033,-1.13719 2.002067,-2.27438 3.003101,-3.41157 1.001033,-1.13718 2.002128,-2.27437 3.003162,-3.41156 1.001034,-1.13658 2.002067,-2.27377 3.003101,-3.41095 1.001033,-1.13719 2.002128,-2.27438 3.003162,-3.41157 1.001034,-1.13719 2.002067,-2.27438 3.003101,-3.41157 1.001033,-1.13719 2.002067,-2.27376 3.003162,-3.41095 1.001034,-1.13719 2.00231,-2.27438 3.00304,-3.41157 1.00134,-1.13719 2.00207,-2.27437 3.00341,-3.41156 1.00072,-1.13719 2.00206,-2.27438 3.00279,-3.41096 1.00134,-1.13718 2.00207,-2.27437 3.00341,-3.41156 1.00072,-1.13719 2.00206,-2.27438 3.00279,-3.41157 1.00134,-1.13719 2.00207,-2.27438 3.00341,-3.41095 1.00072,-1.13719 2.00207,-2.27438 3.00279,-3.41157 1.00134,-1.13719 2.00207,-2.27438 3.00341,-3.41157 1.00073,-1.13718 2.00207,-2.27437 3.00279,-3.41156 1.00134,-1.13658 2.00269,-2.27377 3.00341,-3.41095 1.00134,-1.13719 2.00207,-2.27438 3.00341,-3.41157 1.00073,-1.13719 2.00207,-2.27438 3.00279,-3.41157 1.00134,-1.13719 2.00207,-2.27376 3.00341,-3.41095 1.00073,-1.13719 2.00207,-2.27438 3.0028,-3.41157 1.00134,-1.13719 2.00206,-2.27437 3.0034,-3.41156"
       title="x"
       id="path3876" />
    <path
       style="fill:#000000;stroke:#000000;stroke-width:0.5;stroke-linecap:butt;stroke-linejoin:miter;stroke-miterlimit:4;stroke-dasharray:none;stroke-opacity:1;marker-end:url(#marker1569)"
       d="M 11.5298,211.45863 H 182.64539"
       id="path1499" />
    <path
       style="fill:#000000;stroke:#000000;stroke-width:0.5;stroke-linecap:butt;stroke-linejoin:miter;stroke-miterlimit:4;stroke-dasharray:none;stroke-opacity:1"
       d="M 167.94152,214.83469 V 208.6692"
       id="path1501-0" />
    <path
       style="fill:#000000;stroke:#000000;stroke-width:0.5;stroke-linecap:butt;stroke-linejoin:miter;stroke-miterlimit:4;stroke-dasharray:none;stroke-opacity:1"
       d="m 153.24638,214.67462 v -6.16549"
       id="path1501-0-2" />
    <text
       xml:space="preserve"
       style="font-style:normal;font-variant:normal;font-weight:normal;font-stretch:normal;font-size:5.64444px;line-height:1.25;font-family:'Palatino Linotype';-inkscape-font-specification:'Palatino Linotype, Normal';font-variant-ligatures:normal;font-variant-caps:normal;font-variant-numeric:normal;font-variant-east-asian:normal;fill:#000000;fill-opacity:1;stroke:none;stroke-width:0.264583"
       x="164.21649"
       y="207.52058"
       id="text855-6-7"><tspan
         sodipodi:role="line"
         id="tspan4095"
         x="164.21649"
         y="207.52058">1.8</tspan></text>
    <text
       xml:space="preserve"
       style="font-style:normal;font-variant:normal;font-weight:normal;font-stretch:normal;font-size:5.64444px;line-height:1.25;font-family:'Palatino Linotype';-inkscape-font-specification:'Palatino Linotype, Normal';font-variant-ligatures:normal;font-variant-caps:normal;font-variant-numeric:normal;font-variant-east-asian:normal;fill:#000000;fill-opacity:1;stroke:none;stroke-width:0.264583"
       x="149.14407"
       y="207.51782"
       id="text855-6"><tspan
         sodipodi:role="line"
         id="tspan4069"
         x="149.14407"
         y="207.51782">1.6</tspan></text>
  </g>
</svg>
